Patient4_TMGait_0pt4_02_left_03_EMG.mot
version=1
nRows=23
nColumns=33
inDegrees=no
endheader
time	1LAddLong	2LGlutMax	3LGlutMed	4LIliopsoas	5LSemiMemb	6LBicFemLong	7LRecFem	8LVastMed	9LVastLat	10LGasMed	11LTibAnt	12lTibPost	13LPeroneusLong	14LSol	15LExtDigLong	16LFlexDigLong	17RAddLong	18RGlutMax	19RGlutMed	20RIliopsoas	21RSemiMemb	22RBicFemLong	23RRecFem	24RVastMed	25RVastLat	26RGasMed	27RTibAnt	28RTibPost	29RPeroneusLong	30RSol	31RExtDigLong	32RFlexDigLong
5.338	0.000916	0.15457	-0.018158	-0.010071	0.004425	-0.00473	0.040741	-0.000458	0.084686	-0.021667	0.014343	-0.000763	0.028839	-0.054626	0.06958	-0.011292	0.031586	-0.25559	-0.41367	-0.027466	-0.00412	-0.001984	-0.014191	-0.09079	-0.001526	0.11597	0.012054	-0.041046	0.20828	0.052338	0.001068	-0.020294
5.339	0.001984	0.14725	0.015411	-0.003967	0.006561	-0.00351	0.017853	0.006866	0.080566	-0.021973	0.009613	0.007172	0.03067	-0.11185	0.061188	-0.008698	0.028687	-0.2034	-0.05188	0.2092	0.16541	-0.060577	-0.024261	0.001984	0.019379	0.059967	0.023499	-0.039368	1.0483	-0.09552	0.001068	-0.013885
5.34	-0.002594	0.14191	0.01297	0.01297	0.003967	0.010834	0.042725	0.00885	0.088959	-0.031128	0.003662	-0.005035	0.019989	-0.068665	0.063477	-0.00473	0.014343	-0.16983	-0.14969	0.36087	0.16464	-0.064697	0.027161	0.035095	-0.018921	0.0737	0.13062	0.072174	0.55756	-0.08316	-0.000458	-0.023651
5.341	0.00885	0.14771	0.010223	0.002289	0.020294	-0.02243	0.050659	0.00946	0.071869	-0.034332	-0.003662	0.003662	0.012512	-0.053864	0.055084	-0.018921	0.006256	-0.089569	0.61142	0.27878	0.062408	-0.046844	0.13718	0.063782	-0.000305	0.066223	0.11231	0.017853	0.11215	-0.009918	-0.000458	-0.013123
5.342	0.00061	0.12085	-0.032043	0.018005	0.01297	0.000916	0.036926	0.004883	0.092163	-0.027313	-0.00824	-0.01297	0.021362	-0.046539	0.054016	-0.001526	-0.003815	-0.14893	0.8374	0.075989	-0.006256	-0.043488	0.042419	-0.019531	-0.027924	-0.029297	0.025482	-0.038452	-0.39215	-0.18585	-0.001221	-0.006409
5.343	-0.014191	0.1091	-0.062256	0.018463	-0.009766	-0.004883	0.010071	0.008087	0.094147	-0.020142	-0.020142	-0.002441	0.035248	-0.048676	0.048981	-0.010376	0.003052	-0.15106	1.0837	0.020447	-0.052948	0.034943	-0.18753	-0.079193	0.005951	-0.068207	-0.054321	-0.048981	-0.49683	-0.19455	0.005493	0.001678
5.344	-0.003204	0.087738	-0.076447	0.016785	-0.016327	-0.026855	0.024872	0.006104	0.090637	-0.032043	-0.048523	-0.003204	0.028992	-0.05249	0.042572	0.000916	-0.001831	-0.16754	0.19348	-0.087433	0.043945	-0.001831	-0.19867	0.023346	0.064087	-0.025482	-0.041656	-0.042267	-0.93277	-0.040436	0	0.009003
5.345	-0.007477	0.067139	-0.068512	-0.004272	-0.014496	-0.037994	0.007172	0.007172	0.092773	-0.028229	-0.059357	-0.001373	0.002899	-0.034485	0.10803	-0.002136	0.004578	-0.30243	-0.47607	-0.13138	0.12009	-0.1149	-0.037231	0.097961	0.01358	-0.014648	-0.030365	-0.03891	-1.1133	-0.035553	0.001221	0.006561
5.346	0.013275	0.061646	-0.056763	0.009308	0.003052	-0.023499	0.016479	0.006866	0.089874	-0.030365	-0.089264	0.001678	0.021973	-0.021057	0.12344	-0.006104	0.001373	-0.24353	-0.327	-0.000305	0.14908	-0.13138	0.038147	0.051422	-0.015717	-0.022583	-0.012512	0.005646	-1.0948	-0.11871	0.001221	-0.002747
5.347	0.005646	0.051727	0.010071	0.016327	0.016479	-0.01236	0.025787	0.007324	0.083313	-0.027008	-0.067444	0.003815	-0.027161	-0.012817	0.038757	-0.016632	0.004272	-0.27344	-0.56564	0.11276	0.018921	-0.052338	0.033569	0.039215	-0.015106	-0.028992	-0.046692	0.054474	-0.70786	-0.27481	0.002594	-0.01236
5.348	0.001526	0.013123	-0.030212	0.002594	0.012512	0.022125	0.031281	-0.00061	0.07843	-0.032959	-0.01297	-0.00473	-0.031433	-0.013123	0.10452	-0.007324	-0.006561	-0.31326	-0.77225	0.17136	-0.048676	0.033264	0.065918	0.052032	-0.009766	-0.038605	0.000458	0.001526	0.32272	-0.16602	0.000458	-0.010681
5.349	0.005646	0.028992	-0.043945	-0.004425	0.005951	0.061188	0.039825	0.018463	0.071564	-0.052948	0.008698	-0.003967	-0.029907	0.016479	-0.00412	0.001984	0.004883	-0.26291	-0.35782	0.1944	0.00412	0.070953	0.14191	0.041351	-0.002899	-0.053101	0.001068	-0.01297	1.1469	0.33157	0.000458	-0.018005
5.35	-0.005341	-0.006561	-0.040131	0.011749	-0.041199	0.072174	0.041504	0.040894	0.071564	-0.040436	0.082703	-0.006866	-0.031281	0.019531	0.26749	-0.013123	0.000458	-0.19089	0.49545	0.055084	0.024719	0.096893	0.058899	0.011902	0.010376	-0.047913	-0.025635	-0.000763	0.90775	0.35049	0.000458	-0.005035
5.351	0.002747	-0.020142	-0.047607	-0.00061	-0.064392	0.038452	0.040131	0.002594	0.074768	-0.022736	0.10819	0.000305	-0.036316	-0.023499	0.001068	0.00412	0.00473	-0.22247	0.32791	-0.007172	0.070648	0.087891	0.07019	-0.041351	-0.013885	-0.092773	0.00885	-0.002747	0.036163	0.15854	-0.000305	-0.013275
5.352	-0.002441	-0.029755	-0.056305	-0.006256	-0.016479	-0.00061	0.033722	0.006256	0.065918	-0.021667	0.016479	-0.00412	-0.02594	-0.071106	-0.44098	-0.001678	-0.007782	-0.19501	0.49332	-0.034332	0.10086	0.071716	-0.085144	0.070953	0.009766	-0.15015	0.024567	-0.025177	-0.33295	0.34546	-0.003357	-0.013428
5.353	0.001831	-0.029144	-0.011902	0.004883	0.00885	0.010529	0.034027	-0.002289	0.083618	-0.041809	-0.021515	-0.00473	-0.020752	-0.010071	-0.20935	-0.002747	-0.005188	-0.17105	0.40207	-0.009003	0.046997	0.024567	-0.20935	0.061951	-0.012207	-0.052185	0.01709	-0.052185	-0.17319	0.2858	-0.001678	-0.012054
5.354	0	-0.030212	-0.063477	0.005951	-0.014496	0.036926	0.046539	0.000153	0.075684	-0.043945	0.022125	-0.001526	-0.003967	-0.007324	0.019684	0.006714	-0.010681	-0.17456	0.076294	-0.02182	-0.010986	0.006866	-0.34027	-0.006104	0.041351	-0.061646	0.028992	-0.035858	-0.23926	0.079346	-0.003357	-0.009003
5.355	0.006409	-0.045319	-0.043793	0.010681	-0.019073	0.064087	0.031128	0.006104	0.086212	-0.050201	0.21118	-0.009766	-0.019989	-0.037231	-0.08316	0.003967	-0.001831	-0.17532	-0.34622	-0.11017	-0.010986	-0.035095	-0.24307	-0.059967	0.016174	-0.04303	0.033569	-0.015717	-0.16876	0.017395	-0.002136	-0.016022
5.356	0.004883	-0.070038	-0.075684	0.005188	-0.037231	0.063782	0.055389	0.009308	0.09201	-0.046082	0.21271	-0.000916	-0.038757	-0.053101	0.25665	0.007629	0.007629	-0.18021	-0.19943	-0.094452	0.035706	-0.017853	-0.047607	-0.085754	-0.031281	-0.05188	0.053864	0.023499	-0.15747	-0.13931	-0.00061	-0.01297
5.357	0.001373	-0.083618	-0.048065	0.009613	0.041199	0.067291	0.054626	0.00946	0.073547	-0.056305	-0.011749	0.003662	-0.068665	-0.016937	-0.069885	0.008545	-0.000916	-0.18112	0.19974	-0.027618	0.075226	0.01297	0.054016	-0.037994	-0.084229	-0.036469	0.053101	0.015106	-0.30884	-0.19272	-0.001831	-0.016327
5.358	0.00824	-0.076294	-0.11795	0.004578	0.063171	0.04303	0.040436	0.005188	0.074158	-0.06134	-0.10986	-0.003815	-0.010681	-0.059509	-0.20584	0.011444	0.01358	-0.11322	0.28275	-0.030212	0.068207	-0.018921	0.12924	-0.088654	-0.079193	0.11917	0.048828	-0.050659	-0.36819	-0.21881	-0.000763	-0.010376
5.359	0.013733	-0.047607	-0.12405	0.013885	0.022278	-0.025177	0.033722	0.008545	0.068665	-0.03891	-0.10635	-0.004272	-0.014496	-0.10986	-0.2211	0.002594	0.005493	-0.058594	0.21576	-0.080109	0.060272	-0.021515	0.039063	-0.029144	0.032349	0.060272	0.04715	-0.055542	-0.20615	-0.28076	0	-0.003052
5.36	0.015869	-0.059662	-0.074768	-0.001221	0.003967	-0.009003	0.023804	0.006866	0.056763	-0.031128	-0.057526	-0.00946	0.006409	-0.078735	-0.053406	0.007629	0.015564	-0.076752	0.29724	-0.070038	0.051575	-0.000305	-0.12695	-0.061646	0.038757	-0.009308	-0.003815	0.07019	-0.55603	-0.1445	-0.000153	-0.011292
